<!-- <svg xmlns="http://www.w3.org/2000/svg" viewBox="0 0 512 512" fill="#88b9ff">! Font Awesome Pro 6.5.2 by @fontawesome - https://fontawesome.com License - https://fontawesome.com/license (Commercial License) Copyright 2024 Fonticons, Inc.<path d="M69.4 210.6C89.8 126.5 165.6 64 256 64c71.1 0 133.1 38.6 166.3 96H368c-8.8 0-16 7.2-16 16s7.2 16 16 16h80.7H464c8.8 0 16-7.2 16-16V80c0-8.8-7.2-16-16-16s-16 7.2-16 16v60.6C408.8 75.5 337.5 32 256 32C149.6 32 60.5 106.2 37.7 205.6C35.5 215.2 43.1 224 53 224c7.9 0 14.6-5.7 16.5-13.4zm373.2 90.9C422.2 385.5 346.4 448 256 448c-71.1 0-133.1-38.6-166.3-96h54.5c8.8 0 16-7.2 16-16s-7.2-16-16-16H63.3 48.2c-8.8 0-16 7.2-16 16v96c0 8.8 7.2 16 16 16s16-7.2 16-16V371.8C103.4 436.6 174.7 480 256 480c106.4 0 195.5-74.2 218.3-173.6c2.2-9.6-5.4-18.4-15.3-18.4c-7.9 0-14.6 5.7-16.5 13.4z"/></svg> -->

<svg xmlns="http://www.w3.org/2000/svg" viewBox="0 0 512 512" fill="#88b9ff"><!--! Font Awesome Pro 6.5.2 by @fontawesome - https://fontawesome.com License - https://fontawesome.com/license (Commercial License) Copyright 2024 Fonticons, Inc. --><path d="M105.1 202.6c7.7-21.8 20.2-42.3 37.8-59.8c62.5-62.5 163.8-62.5 226.3 0L386.3 160H352c-17.7 0-32 14.3-32 32s14.3 32 32 32H463.5c0 0 0 0 0 0h.4c17.7 0 32-14.3 32-32V80c0-17.7-14.3-32-32-32s-32 14.3-32 32v35.2L414.4 97.6c-87.5-87.5-229.3-87.5-316.8 0C73.2 122 55.6 150.7 44.8 181.4c-5.9 16.7 2.9 34.9 19.5 40.8s34.9-2.9 40.8-19.5zM39 289.3c-5 1.5-9.8 4.2-13.7 8.2c-4 4-6.7 8.8-8.1 14c-.3 1.2-.6 2.5-.8 3.8c-.3 1.7-.4 3.4-.4 5.1V432c0 17.7 14.3 32 32 32s32-14.3 32-32V396.9l17.6 17.5 0 0c87.5 87.4 229.3 87.4 316.7 0c24.4-24.4 42.1-53.1 52.9-83.7c5.9-16.7-2.9-34.9-19.5-40.8s-34.9 2.9-40.8 19.5c-7.7 21.8-20.2 42.3-37.8 59.8c-62.5 62.5-163.8 62.5-226.3 0l-.1-.1L125.6 352H160c17.7 0 32-14.3 32-32s-14.3-32-32-32H48.4c-1.6 0-3.2 .1-4.8 .3s-3.1 .5-4.6 1z"/></svg>
